<?xml version="1.0" encoding="UTF-8"?>
<svg width="700pt" height="700pt" version="1.1" viewBox="0 0 700 700" xmlns="http://www.w3.org/2000/svg">
 <g>
  <path fill="#00ff28" d="M359.799,142.042c-22.59,16.048-39.129,36.504-48.234,57.363V19.845C311.565,8.885,302.68,0,291.72,0    c-10.96,0-19.845,8.885-19.845,19.845v70.197c-10.352-22.085-31.282-43.037-59.383-56.663    c-34.427-16.692-70.828-18.13-96.368-6.434c6.633,27.296,30.306,54.988,64.733,71.68c32.091,15.56,65.893,17.859,91.02,8.627    v193.704c-13.547-30.582-37.885-60.527-71.018-84.065c-49.815-35.389-106.769-47.271-150.086-35.597    c3.236,44.746,33.205,94.615,83.018,130.004c45.336,32.207,96.584,44.937,138.086,38.166v66.486    c2.112-0.071,4.227-0.531,6.345-0.531h26.997v0c2.118,0,4.234,0.459,6.345,0.531V231.593c28.09,4.665,62.833-3.921,93.56-25.751    c33.665-23.916,53.917-57.617,56.104-87.856C431.954,110.097,393.464,118.126,359.799,142.042z"/>
 </g>

</svg>
